<?xml version="1.0" encoding="utf-8"?>
<!-- Generator: Adobe Illustrator 16.0.0, SVG Export Plug-In . SVG Version: 6.00 Build 0)  -->
<!DOCTYPE svg PUBLIC "-//W3C//DTD SVG 1.1//EN" "http://www.w3.org/Graphics/SVG/1.1/DTD/svg11.dtd">
<svg version="1.1" id="Layer_1" xmlns="http://www.w3.org/2000/svg" xmlns:xlink="http://www.w3.org/1999/xlink" x="0px" y="0px"
	 width="451.333px" height="102.667px" viewBox="0 0 451.333 102.667" enable-background="new 0 0 451.333 102.667"
	 xml:space="preserve">
<g>
	<path fill="#222223" d="M126.412,57.441h-11.905v7.681h13.297v6h-20.642V38.768h19.97v6h-12.625v6.721h11.905V57.441z"/>
	<path fill="#222223" d="M154.204,63.586c0,3.072,0.096,5.568,0.192,7.537h-6.336l-0.336-3.312h-0.144
		c-0.912,1.44-3.12,3.84-7.345,3.84c-4.752,0-8.257-2.976-8.257-10.225V47.648h7.345v12.625c0,3.409,1.104,5.473,3.648,5.473
		c2.016,0,3.168-1.392,3.648-2.544c0.192-0.432,0.24-1.008,0.24-1.584V47.648h7.345V63.586z"/>
	<path fill="#222223" d="M160.058,55.377c0-3.457-0.096-5.713-0.192-7.729h6.289l0.24,4.32h0.192c1.2-3.408,4.08-4.848,6.336-4.848
		c0.672,0,1.008,0,1.536,0.096v6.865c-0.528-0.096-1.152-0.192-1.968-0.192c-2.688,0-4.512,1.44-4.992,3.696
		c-0.096,0.48-0.144,1.056-0.144,1.632v11.905h-7.297V55.377z"/>
	<path fill="#222223" d="M201.099,59.122c0,8.593-6.097,12.529-12.385,12.529c-6.864,0-12.145-4.512-12.145-12.097
		c0-7.585,4.993-12.433,12.529-12.433C196.299,47.121,201.099,52.065,201.099,59.122z M184.105,59.361
		c0,4.033,1.68,7.057,4.801,7.057c2.832,0,4.656-2.832,4.656-7.057c0-3.504-1.344-7.056-4.656-7.056
		C185.402,52.305,184.105,55.905,184.105,59.361z"/>
	<path fill="#222223" d="M205.609,55.521c0-3.072-0.096-5.712-0.192-7.873h6.336l0.336,3.264h0.096
		c1.728-2.496,4.417-3.792,7.825-3.792c5.136,0,9.745,4.464,9.745,11.953c0,8.544-5.424,12.577-10.657,12.577
		c-2.833,0-5.041-1.152-6.097-2.688h-0.096v11.665h-7.297V55.521z M212.906,61.042c0,0.576,0.048,1.104,0.144,1.536
		c0.48,1.968,2.16,3.457,4.272,3.457c3.168,0,5.041-2.64,5.041-6.625c0-3.745-1.68-6.577-4.944-6.577
		c-2.064,0-3.888,1.536-4.368,3.696c-0.096,0.384-0.144,0.864-0.144,1.296V61.042z"/>
	<path fill="#222223" d="M240.073,61.714c0.24,3.024,3.216,4.464,6.625,4.464c2.496,0,4.512-0.336,6.48-0.96l0.96,4.944
		c-2.4,0.96-5.329,1.44-8.497,1.44c-7.969,0-12.529-4.608-12.529-11.953c0-5.952,3.696-12.529,11.857-12.529
		c7.584,0,10.465,5.904,10.465,11.713c0,1.248-0.144,2.352-0.24,2.88H240.073z M248.666,56.721c0-1.776-0.768-4.752-4.128-4.752
		c-3.072,0-4.32,2.784-4.513,4.752H248.666z"/>
	<path fill="#222223" d="M260.521,39.2c2.112-0.432,5.136-0.672,8.017-0.672c4.464,0,7.345,0.816,9.361,2.64
		c1.632,1.44,2.544,3.648,2.544,6.145c0,4.272-2.688,7.104-6.096,8.257v0.144c2.496,0.864,3.984,3.168,4.752,6.528
		c1.056,4.513,1.824,7.633,2.496,8.881h-4.32c-0.528-0.912-1.248-3.696-2.16-7.729c-0.96-4.464-2.688-6.145-6.48-6.289h-3.937
		v14.017h-4.176V39.2z M264.697,53.937h4.272c4.464,0,7.296-2.448,7.296-6.145c0-4.176-3.024-6-7.44-6.048
		c-2.016,0-3.457,0.192-4.128,0.384V53.937z"/>
	<path fill="#222223" d="M288.745,60.273c0.096,5.713,3.744,8.065,7.969,8.065c3.023,0,4.848-0.528,6.432-1.2l0.721,3.024
		c-1.488,0.672-4.033,1.44-7.729,1.44c-7.152,0-11.425-4.705-11.425-11.713c0-7.009,4.128-12.529,10.897-12.529
		c7.585,0,9.601,6.673,9.601,10.945c0,0.864-0.096,1.536-0.145,1.968H288.745z M301.129,57.25c0.048-2.688-1.104-6.865-5.856-6.865
		c-4.272,0-6.145,3.937-6.481,6.865H301.129z"/>
	<path fill="#222223" d="M310.44,54.177c0-2.4-0.049-4.369-0.192-6.289h3.696l0.191,3.744h0.145
		c1.296-2.208,3.456-4.272,7.297-4.272c3.168,0,5.568,1.92,6.576,4.657h0.096c0.721-1.296,1.633-2.304,2.593-3.024
		c1.392-1.056,2.929-1.632,5.136-1.632c3.072,0,7.633,2.016,7.633,10.081v13.681h-4.128V57.969c0-4.464-1.632-7.152-5.04-7.152
		c-2.4,0-4.273,1.776-4.992,3.84c-0.193,0.576-0.337,1.344-0.337,2.112v14.353h-4.128V57.201c0-3.696-1.633-6.384-4.849-6.384
		c-2.64,0-4.561,2.112-5.232,4.224c-0.24,0.624-0.336,1.344-0.336,2.064v14.017h-4.128V54.177z"/>
	<path fill="#222223" d="M371.498,59.313c0,8.593-5.952,12.337-11.569,12.337c-6.289,0-11.137-4.608-11.137-11.953
		c0-7.777,5.088-12.337,11.521-12.337C366.985,47.36,371.498,52.209,371.498,59.313z M353.064,59.554
		c0,5.088,2.929,8.929,7.057,8.929c4.032,0,7.057-3.792,7.057-9.025c0-3.937-1.968-8.929-6.961-8.929
		C355.224,50.529,353.064,55.137,353.064,59.554z"/>
	<path fill="#222223" d="M381.912,41.216v6.673h6.048v3.216h-6.048v12.529c0,2.88,0.815,4.513,3.169,4.513
		c1.104,0,1.92-0.144,2.447-0.288l0.192,3.168c-0.816,0.336-2.112,0.576-3.745,0.576c-1.967,0-3.552-0.624-4.56-1.776
		c-1.2-1.249-1.632-3.312-1.632-6.049V51.105h-3.601v-3.216h3.601V42.32L381.912,41.216z"/>
	<path fill="#222223" d="M394.776,60.273c0.096,5.713,3.744,8.065,7.969,8.065c3.023,0,4.848-0.528,6.432-1.2l0.721,3.024
		c-1.488,0.672-4.033,1.44-7.729,1.44c-7.152,0-11.426-4.705-11.426-11.713c0-7.009,4.129-12.529,10.897-12.529
		c7.585,0,9.601,6.673,9.601,10.945c0,0.864-0.096,1.536-0.145,1.968H394.776z M407.161,57.25c0.048-2.688-1.104-6.865-5.856-6.865
		c-4.272,0-6.145,3.937-6.481,6.865H407.161z"/>
	<path fill="#222223" d="M416.471,37.04h4.224v34.083h-4.224V37.04z"/>
	<path fill="#222223" d="M429.334,47.889l5.089,13.729c0.528,1.536,1.104,3.36,1.488,4.752h0.096
		c0.433-1.392,0.912-3.168,1.488-4.848l4.608-13.633h4.465l-6.337,16.562c-3.024,7.968-5.089,12.049-7.969,14.545
		c-2.064,1.824-4.128,2.544-5.185,2.736l-1.057-3.552c1.057-0.336,2.449-1.008,3.697-2.064c1.152-0.912,2.592-2.544,3.552-4.704
		c0.192-0.432,0.337-0.768,0.337-1.008c0-0.24-0.097-0.576-0.289-1.104l-8.592-21.41H429.334z"/>
</g>
<g>
	<line fill="none" stroke="#00AEEF" stroke-width="5" stroke-miterlimit="10" x1="45.563" y1="44.001" x2="70.935" y2="29.353"/>
	<line fill="none" stroke="#00AEEF" stroke-width="5" stroke-miterlimit="10" x1="81.902" y1="74.403" x2="81.902" y2="35.688"/>
	<line fill="none" stroke="#00AEEF" stroke-width="5" stroke-miterlimit="10" x1="75.2" y1="79.198" x2="46.386" y2="62.562"/>
	<path fill="#00AEEF" d="M52.275,40.13C45.14,27.771,29.339,23.537,16.98,30.669S0.388,53.607,7.523,65.966
		s22.939,16.594,35.295,9.461C55.177,68.287,59.412,52.486,52.275,40.13z M37.136,65.576c-6.924,4-15.771,1.629-19.766-5.293
		c-4-6.918-1.627-15.77,5.293-19.77c6.922-3.992,15.77-1.621,19.766,5.297C46.427,52.732,44.054,61.583,37.136,65.576z"/>
	<path fill="#00AEEF" d="M97.566,13.982C92.572,5.326,81.509,2.365,72.859,7.357c-8.652,5-11.617,16.062-6.623,24.711
		c4.998,8.652,16.061,11.617,24.709,6.617C99.599,33.693,102.562,22.63,97.566,13.982z M86.968,31.794
		c-4.846,2.797-11.043,1.141-13.838-3.703c-2.799-4.844-1.139-11.039,3.707-13.836c4.846-2.801,11.039-1.141,13.834,3.703
		C93.468,22.802,91.81,28.998,86.968,31.794z"/>
	<path fill="#00AEEF" d="M92.867,76.74c-3.496-6.055-11.238-8.129-17.295-4.633c-6.055,3.492-8.131,11.242-4.635,17.297
		c3.494,6.055,11.24,8.129,17.297,4.633C94.289,90.537,96.365,82.794,92.867,76.74z M85.152,88.443
		c-2.969,1.715-6.766,0.695-8.477-2.27c-1.713-2.965-0.697-6.762,2.271-8.473c2.967-1.715,6.76-0.699,8.473,2.266
		C89.136,82.935,88.119,86.732,85.152,88.443z"/>
</g>
</svg>
